<svg id="calendar-svgrepo-com" xmlns="http://www.w3.org/2000/svg" width="64" height="64" viewBox="0 0 64 64">
  <path id="calendar_1_" d="M58.36,61.72h-56A.72.72,0,0,1,1.64,61V7a.72.72,0,0,1,.72-.72H13.64V1h1.44V6.28H29.64V1h1.44V6.28H45.64V1h1.442V6.28H58.36a.72.72,0,0,1,.72.72V61A.72.72,0,0,1,58.36,61.72ZM3.08,60.28H57.64V7.72H47.08V13H45.64V7.72H31.08V13H29.64V7.72H15.08V13H13.64V7.72H3.08Zm45.28-6.56h-4a.72.72,0,0,1-.72-.72V49a.72.72,0,0,1,.72-.72h4a.72.72,0,0,1,.72.72v4A.72.72,0,0,1,48.36,53.72Zm-3.28-1.44h2.558V49.72H45.08ZM32.36,53.72h-4a.72.72,0,0,1-.72-.72V49a.72.72,0,0,1,.72-.72h4a.72.72,0,0,1,.72.72v4A.72.72,0,0,1,32.36,53.72Zm-3.28-1.44h2.56V49.72H29.08ZM16.36,53.72h-4a.72.72,0,0,1-.72-.72V49a.72.72,0,0,1,.72-.72h4a.72.72,0,0,1,.72.72v4A.72.72,0,0,1,16.36,53.72Zm-3.28-1.44h2.56V49.72H13.08ZM48.36,39.72h-4a.72.72,0,0,1-.72-.72V35a.72.72,0,0,1,.72-.72h4a.72.72,0,0,1,.72.72v4A.72.72,0,0,1,48.36,39.72Zm-3.28-1.44h2.558V35.72H45.08ZM32.36,39.72h-4a.72.72,0,0,1-.72-.72V35a.72.72,0,0,1,.72-.72h4a.72.72,0,0,1,.72.72v4A.72.72,0,0,1,32.36,39.72Zm-3.28-1.44h2.56V35.72H29.08ZM16.36,39.72h-4a.72.72,0,0,1-.72-.72V35a.72.72,0,0,1,.72-.72h4a.72.72,0,0,1,.72.72v4A.72.72,0,0,1,16.36,39.72Zm-3.28-1.44h2.56V35.72H13.08ZM48.36,25.72h-4a.72.72,0,0,1-.72-.72V21a.72.72,0,0,1,.72-.72h4a.72.72,0,0,1,.72.72v4A.72.72,0,0,1,48.36,25.72Zm-3.28-1.44h2.558V21.72H45.08ZM32.36,25.72h-4a.72.72,0,0,1-.72-.72V21a.72.72,0,0,1,.72-.72h4a.72.72,0,0,1,.72.72v4A.72.72,0,0,1,32.36,25.72Zm-3.28-1.44h2.56V21.72H29.08ZM16.36,25.72h-4a.72.72,0,0,1-.72-.72V21a.72.72,0,0,1,.72-.72h4a.72.72,0,0,1,.72.72v4A.72.72,0,0,1,16.36,25.72Zm-3.28-1.44h2.56V21.72H13.08Z" transform="translate(1.64 1)"/>
  <rect id="_Transparent_Rectangle" width="64" height="64" fill="none"/>
</svg>
