<svg id="security-shield-svgrepo-com" xmlns="http://www.w3.org/2000/svg" width="64" height="64" viewBox="0 0 64 64">
  <path id="security--shield_1_" d="M27.36.59,4.64,12.982V39.41A23.024,23.024,0,0,0,27.36,62.13,23.024,23.024,0,0,0,50.08,39.41V12.982ZM47.04,47.324,27.36,36.594v1.642l19.072,10.4A21.937,21.937,0,0,1,40.614,55.9L27.36,48.68v1.642l11.99,6.536A20.951,20.951,0,0,1,27.36,60.69,21.564,21.564,0,0,1,6.08,39.41V13.838L27.36,2.23,48.64,13.838V24.2l-21.28-11.6v1.64l21.28,11.6V36.11l-21.28-11.6v1.64l21.28,11.6V39.41A20.607,20.607,0,0,1,47.04,47.324Z" transform="translate(4.64 0.59)"/>
  <rect id="_Transparent_Rectangle" width="64" height="64" fill="none"/>
</svg>
