<svg id="customer-service-svgrepo-com" xmlns="http://www.w3.org/2000/svg" width="64" height="64" viewBox="0 0 64 64">
  <path id="customer--service_2_" d="M62.08,61.36H60.64c0-12.864-9.554-24.464-22.718-27.584a.72.72,0,0,1-.126-1.358,15.939,15.939,0,0,0,6.6-5.468l1.184.822a17.394,17.394,0,0,1-5.506,5.092C52.93,36.736,62.08,48.44,62.08,61.36Zm-60,0H.64c0-12.92,9.148-24.624,22-28.5A17.291,17.291,0,1,1,44.676,6.9l-1.11.92a15.851,15.851,0,1,0-18.64,24.6.72.72,0,0,1-.126,1.358C11.634,36.9,2.08,48.5,2.08,61.36ZM37.36,26.08a2.72,2.72,0,1,1,2.616-3.466A7.29,7.29,0,0,0,46.64,15.36v-4h1.442v4a8.734,8.734,0,0,1-8.092,8.7A2.726,2.726,0,0,1,37.36,26.08Zm0-4a1.28,1.28,0,1,0,1.28,1.28A1.281,1.281,0,0,0,37.36,22.08Z" transform="translate(0.64 0.64)"/>
  <rect id="_Transparent_Rectangle" width="64" height="64" fill="none"/>
</svg>
